{"title":"The.Ruins.2008.DVDRip.Swesub.Xvid","uid":8538681,"size":733094250,"categoryP":"video","categoryS":"movies","magnet":"?xt=urn:btih:fa0dd7cb9daa76c1f3961edc8d8e11edba2c61e9&amp;dn=The.Ruins.2008.DVDRip.Swesub.Xvid&amp;tr=udp%3A%2F%2Ftracker.openbittorrent.com%3A80&amp;tr=udp%3A%2F%2Fopen.demonii.com%3A1337&amp;tr=udp%3A%2F%2Ftracker.coppersurfer.tk%3A6969&amp;tr=udp%3A%2F%2Fexodus.desync.com%3A6969","seeders":1,"leechers":0,"uploader":"nordjok","files":-1,"time":1370334232,"description":"                              Swedish Hardsub\n\n &lt;a href=&quot;\nhttp://www.imdb.com/title/tt0963794/&quot; rel=&quot;nofollow&quot; target=&quot;_NEW&quot;&gt;\nhttp://www.imdb.com/title/tt0963794/&lt;/a&gt;\n\nGeneral\nComplete name                       : The.Ruins.2008.DVDRip.Swesub.Xvid.avi\nFormat                              : AVI\nFormat/Info                         : Audio Video Interleave\nFile size                           : 699 MiB\nDuration                            : 1h 26mn\n\nVideo\nID                                  : 0\nFormat                              : MPEG-4 Visual\nFormat profile                      : Advanced Simple@L5\nFormat settings, BVOP               : 2\nFormat settings, QPel               : No\nFormat settings, GMC                : No warppoints\nFormat settings, Matrix             : Default (H.263)\nCodec ID                            : XVID\nCodec ID/Hint                       : XviD\nDuration                            : 1h 26mn\nBit rate                            : 985 Kbps\nWidth                               : 720 pixels\nHeight                              : 304 pixels\nDisplay aspect ratio                : 2.35:1\nFrame rate                          : 25.000 fps\nColor space                         : YUV\nChroma subsampling                  : 4:2:0\nBit depth                           : 8 bits\nScan type                           : Progressive\nCompression mode                    : Lossy\nBits/(Pixel*Frame)                  : 0.180\nStream size                         : 612 MiB (88%)\nWriting library                     : XviD 73\n\nAudio\nID                                  : 1\nFormat                              : MPEG Audio\nFormat version                      : Version 1\nFormat profile                      : Layer 3\nCodec ID                            : 55\nCodec ID/Hint                       : MP3\nDuration                            : 1h 26mn\nBit rate mode                       : Variable\nBit rate                            : 128 Kbps\nMinimum bit rate                    : 32.0 Kbps\nChannel(s)                          : 2 channels\nSampling rate                       : 48.0 KHz\nCompression mode                    : Lossy\nStream size                         : 79.4 MiB (11%)\nAlignment                           : Aligned on interleaves\nInterleave, duration                : 24 ms (0.60 video frame)\nInterleave, preload duration        : 144 ms\nWriting library                     : LAME3.99r\nEncoding settings                   : -m s -V 5 -q 0 -lowpass 17 --vbr-new -b 32\n\n","torrent":{"xt":"urn:btih:fa0dd7cb9daa76c1f3961edc8d8e11edba2c61e9","amp;dn":"The.Ruins.2008.DVDRip.Swesub.Xvid","amp;tr":["udp%3A%2F%2Ftracker.openbittorrent.com%3A80","udp%3A%2F%2Fopen.demonii.com%3A1337","udp%3A%2F%2Ftracker.coppersurfer.tk%3A6969","udp%3A%2F%2Fexodus.desync.com%3A6969"],"infoHash":"fa0dd7cb9daa76c1f3961edc8d8e11edba2c61e9","infoHashBuffer":{"type":"Buffer","data":[250,13,215,203,157,170,118,193,243,150,30,220,141,142,17,237,186,44,97,233]},"announce":[],"urlList":[]}}